<svg width="117" height="123" viewBox="0 0 117 123" fill="none" xmlns="http://www.w3.org/2000/svg">
<rect y="6" width="117" height="117" rx="15" fill="#CD798A"/>
<path d="M64.859 35.641C67.697 33.925 70.634 32.737 73.67 32.077C76.706 31.351 79.478 30.988 81.986 30.988C86.606 30.988 90.434 31.912 93.47 33.76C96.506 35.608 98.75 38.017 100.202 40.987C101.72 43.957 102.479 47.191 102.479 50.689C102.479 53.923 101.852 57.157 100.598 60.391C99.41 63.625 97.595 66.595 95.153 69.301C92.777 72.007 89.807 74.185 86.243 75.835C82.679 77.419 78.587 78.211 73.967 78.211C73.043 78.211 72.119 78.178 71.195 78.112C70.337 78.046 69.446 77.947 68.522 77.815L68.225 74.647C72.911 74.647 76.805 73.987 79.907 72.667C83.009 71.347 85.451 69.598 87.233 67.42C89.081 65.242 90.401 62.866 91.193 60.292C91.985 57.718 92.381 55.144 92.381 52.57C92.381 49.996 91.82 47.62 90.698 45.442C89.642 43.264 87.992 41.515 85.748 40.195C83.504 38.875 80.633 38.215 77.135 38.215C75.617 38.215 73.934 38.413 72.086 38.809C70.304 39.139 68.423 39.667 66.443 40.393L64.859 35.641ZM50.603 102.169C50.603 99.793 50.834 96.757 51.296 93.061C51.758 89.365 52.319 85.273 52.979 80.785C53.639 76.297 54.266 71.611 54.86 66.727C55.52 61.843 56.081 56.959 56.543 52.075C57.005 47.191 57.236 42.538 57.236 38.116C57.236 35.608 57.104 33.43 56.84 31.582C56.642 29.668 56.312 28.216 55.85 27.226C57.83 27.424 59.645 28.117 61.295 29.305C63.011 30.493 64.397 32.11 65.453 34.156C66.509 36.136 67.037 38.545 67.037 41.383C67.037 44.089 66.74 47.554 66.146 51.778C65.618 56.002 64.958 60.754 64.166 66.034C63.44 71.248 62.78 76.825 62.186 82.765C61.658 88.639 61.394 94.645 61.394 100.783C61.394 102.301 61.427 103.885 61.493 105.535C61.559 107.119 61.724 108.769 61.988 110.485C61.394 110.551 60.899 110.584 60.503 110.584C60.107 110.65 59.744 110.683 59.414 110.683C56.576 110.683 54.398 110.023 52.88 108.703C51.362 107.383 50.603 105.205 50.603 102.169Z" fill="#F5B5C2"/>
<path d="M52.3504 25.9064C51.9411 28.5074 51.5571 31.3941 51.1986 34.5666C50.796 37.7395 50.4384 41 50.1259 44.3479C49.814 47.7398 49.5232 51.0655 49.2536 54.3249C48.9841 57.5843 48.7997 60.6007 48.7004 63.3741C48.5577 66.1919 48.498 68.5908 48.5213 70.5707C48.5489 72.9025 48.6356 74.6616 48.7816 75.848C48.9277 77.0343 49.1821 78.0874 49.545 79.0072C47.6458 78.4136 46.1409 77.6613 45.03 76.7503C43.9192 75.8394 43.1135 74.6828 42.6129 73.2806C40.8194 74.1818 38.8696 74.8869 36.7635 75.3958C34.6138 75.9492 32.5711 76.2373 30.6352 76.2602C28.1714 76.2893 26.0324 75.8745 24.2181 75.0158C22.4038 74.1572 21.0029 72.8976 20.0152 71.2372C18.9841 69.6212 18.4553 67.6914 18.4288 65.4475C18.4028 63.2477 18.8629 61.2181 19.809 59.3588C20.7551 57.4995 22.1438 55.855 23.9751 54.4253C25.8063 52.9956 28.0587 51.8249 30.7321 50.9133C28.835 50.4956 27.1336 49.8777 25.6278 49.0594C24.1221 48.2411 22.8342 47.2442 21.7643 46.0688C20.6943 44.8933 19.8868 43.5828 19.3417 42.1371C18.7526 40.692 18.4482 39.1334 18.4285 37.4616C18.402 35.2177 18.8393 33.1224 19.7403 31.1756C20.642 29.2729 21.9204 27.6077 23.5757 26.18C25.1874 24.7969 27.1328 23.7179 29.4119 22.9429C31.6463 22.1245 34.1275 21.6992 36.8553 21.667C38.7032 21.6452 40.5531 21.7993 42.4052 22.1295C44.2132 22.4602 45.957 22.9456 47.6367 23.5859C49.3164 24.2261 50.8876 24.9996 52.3504 25.9064ZM33.8852 71.9975C35.2491 71.9814 36.6331 71.8111 38.0374 71.4865C39.4417 71.1619 40.6907 70.7291 41.7843 70.1882C41.7672 68.7363 41.8334 66.8874 41.9829 64.6414C42.1324 62.3955 42.323 59.9071 42.5548 57.1762C42.7866 54.4452 43.0393 51.6261 43.3131 48.7186C43.5433 45.8557 43.774 43.0368 44.0053 40.2619C44.2371 37.5309 44.4272 34.9985 44.5757 32.6646C44.7241 30.3307 44.789 28.3718 44.7703 26.7879C43.5777 26.406 42.4302 26.1115 41.3276 25.9045C40.1816 25.742 39.0367 25.6675 37.8928 25.681C33.889 25.7283 30.7777 26.8211 28.5588 28.9594C26.2959 31.0983 25.1857 33.9716 25.2283 37.5793C25.2558 39.9111 25.8294 41.9065 26.9491 43.5654C28.0687 45.2243 29.7122 46.525 31.8795 47.4675C34.0028 48.4105 36.6053 48.9518 39.6872 49.0915L39.9132 51.465C36.7066 51.9428 34.0097 52.7227 31.8223 53.8046C29.6354 54.9305 27.9802 56.3581 26.8565 58.0875C25.7328 59.8169 25.1842 61.8035 25.2107 64.0474C25.231 65.7632 25.5781 67.2112 26.2521 68.3914C26.9266 69.6155 27.9054 70.528 29.1886 71.1289C30.4718 71.7298 32.0373 72.0193 33.8852 71.9975Z" fill="#6A323D"/>
</svg>
