<svg width="427" height="427" viewBox="0 0 427 427" fill="none" xmlns="http://www.w3.org/2000/svg">
<path d="M284.192 330.824C283.046 332.997 281.061 334.584 278.741 335.36C276.966 335.954 274.716 335.325 273.032 334.626L271.99 334.193C269.363 333.102 267.441 330.6 265.589 328.441C264.904 327.637 264.128 326.883 263.562 325.96C262.731 324.597 261.829 323.395 260.9 322.089C259.97 320.782 257.399 316.337 256.546 314.723L254.981 311.76C254.282 310.439 253.688 309.111 253.073 307.762L250.655 302.465C250.193 301.459 249.648 300.536 249.236 299.509C248.509 297.706 248.16 296.182 247.328 294.554C246.266 292.486 246.832 293.527 246 291.388L244.728 288.139L243.813 285.721L241.996 280.983L240.591 276.866L239.026 272.548L236.643 264.525C236.3 263.379 236.007 262.337 235.741 261.17L235.189 258.731L234.7 256.383L233.729 251.38L233.072 247.781C232.869 246.683 232.673 245.621 232.541 244.496L232.01 240.149L231.527 236.494L230.759 230.065L230.388 226.403L230.109 223.363L229.696 218.862C229.578 217.584 229.585 216.319 229.529 214.949L222.156 215.878L218.718 216.305C217.152 216.5 215.587 216.577 214.056 216.836C213.064 217.003 212.162 217.129 211.17 217.199L207.941 217.43L204.664 217.786L204.811 220.7L204.95 223.461C204.992 224.32 205.118 225.194 205.013 226.06C204.832 227.647 205.027 229.184 204.985 230.75L204.901 233.936C204.88 234.698 204.846 235.53 204.804 236.292L204.629 239.639L204.091 246.159L203.441 251.191C203.301 252.246 203.266 253.232 203.091 254.287L202.707 256.6L202.302 259.102L201.833 261.632L201.442 263.756L200.464 268.173L200.044 270.199C199.625 272.219 199.22 274.106 198.682 276.098L196.306 284.917L195.851 286.371C195.425 287.74 195.062 289.089 194.538 290.424L190.421 300.886L188.87 304.205L187.57 306.91L186.955 308.119C186.452 309.104 185.942 309.985 185.39 310.949L182.517 315.946C181.742 317.294 181.029 318.552 180.246 319.894L179.149 321.788C178.618 322.704 177.989 323.556 177.549 324.507C177.199 325.254 176.808 325.862 176.375 326.547L174.159 330.027C173.663 330.81 173.195 331.481 172.615 332.194L170.532 334.787C169.47 336.107 167.877 336.527 166.395 337.037L163.544 337.044C160.742 336.548 158.407 334.598 157.401 332.208C156.157 329.245 156.674 326.247 158.533 323.85C160.238 321.648 161.769 319.461 163.118 317.036L165.228 313.255L166.549 311.082C167.185 310.033 167.618 308.957 168.268 307.916L169.337 306.19C169.882 305.309 170.218 304.422 170.742 303.548L172.063 301.354C173.258 299.369 176.046 293.261 176.892 290.969L177.982 288.013L178.842 285.833C179.582 283.953 180.309 282.087 180.791 280.116L181.658 276.573C181.951 275.364 182.42 274.246 182.629 273.023C182.748 272.331 182.888 271.695 183.049 271.045L183.873 267.628C184.083 266.761 184.202 265.881 184.488 265.028C184.733 264.301 184.824 263.581 184.894 262.785C184.984 261.778 185.306 260.821 185.488 259.836L185.963 257.278C186.144 256.306 186.354 255.398 186.508 254.399L187.493 247.885C187.71 246.453 188.129 241.826 188.22 240.289L188.465 236.299L188.569 233.461C188.604 232.448 188.535 231.463 188.653 230.477C188.8 229.282 188.737 228.136 188.618 226.92C188.535 226.116 188.737 225.341 188.674 224.537L188.528 222.601C188.444 221.518 188.716 220.477 188.283 219.477L182.322 220.232L179.75 220.512L175.431 220.994L173.265 221.385L165.913 222.035C164.376 222.168 162.831 222.392 161.322 222.161C157.052 221.504 154.242 217.618 154.627 213.453C155.011 209.288 158.449 206.136 162.719 206.032C163.97 206.004 165.165 205.794 166.395 205.661L173.768 204.865L185.837 203.285C186.298 203.222 186.683 203.166 187.102 203.09C186.976 201.818 186.913 200.86 186.725 199.707L185.557 192.467L184.6 187.268L184.23 185.388L183.768 183.333L182.063 176.471C181.84 175.583 181.602 174.744 181.329 173.885C181.092 173.13 180.966 172.389 180.742 171.621L179.491 167.386C179.149 166.212 178.744 165.142 178.317 164.003L177.57 162.026L176.41 159.007L175.494 156.582C174.746 154.597 173.824 152.738 172.908 150.823L170.525 145.84C169.994 144.736 169.533 143.639 168.946 142.577L168.149 141.137L166.87 138.74L165.969 136.93C165.277 135.546 164.578 134.17 163.74 132.87C163.069 131.835 162.531 130.843 161.923 129.802L160.874 127.999L159.602 125.909L158.47 124.022C157.995 123.226 157.506 122.464 156.961 121.702L154.396 118.082L152.237 115.021L150.098 112.324C149.134 111.108 148.323 109.899 147.31 108.718C146.96 108.312 146.597 107.851 146.275 107.425L143.04 103.092C142.565 102.449 142.229 101.513 141.845 100.772C140.79 98.7383 141.558 95.1113 143.166 93.2314C143.781 92.5116 144.354 91.7708 145.22 91.3515C146.261 90.8413 147.31 90.2683 148.477 90.1215C149.232 90.0307 150.231 89.9398 150.979 90.1076C152.914 90.5478 154.906 91.645 156.066 93.2314L157.918 95.7752C158.827 97.0191 159.686 98.2002 160.755 99.3253C161.594 100.206 162.531 101.82 163.579 103.19L166.067 106.426L168.701 109.997C169.267 110.765 169.799 111.457 170.274 112.296C170.749 113.134 171.273 113.84 171.762 114.63L174.46 118.963L177.674 124.463L178.695 126.161L180.009 128.558C180.477 129.41 180.903 130.2 181.288 131.095C181.714 132.08 182.392 132.919 182.846 133.883L183.985 136.266C184.754 137.88 185.606 139.404 186.263 141.067C186.627 141.99 187.081 142.905 187.563 143.772C188.22 144.953 188.646 146.12 189.24 147.343L190.547 150.026L191.197 151.906L192.665 155.47C193.021 156.344 193.196 157.224 193.517 158.126L194.517 160.942L195.886 165.45C196.215 166.519 196.508 167.49 196.809 168.581L198.109 173.298C198.479 174.654 198.633 175.932 199.038 177.281L199.667 179.399L200.576 183.85L201.491 188.763L201.98 191.377L202.309 193.879C202.469 195.109 202.84 196.213 202.994 197.429L203.315 200.105C203.378 200.616 203.448 201.098 203.546 201.531L205.321 201.328L208.962 200.951L214.699 200.315L218.766 199.798L225 199.162L228.865 198.687C228.886 197.422 228.83 196.038 228.816 194.738L228.795 192.048C228.788 190.93 228.599 189.853 228.662 188.763L228.802 186.359L228.907 180.23L228.998 176.638L229.053 173.941L229.326 167.595C229.375 166.386 229.382 165.31 229.515 164.129C229.773 161.816 229.92 159.531 230.039 157.203L230.172 154.709C230.207 153.989 230.255 153.283 230.339 152.542L230.78 148.643L231.276 144.1L231.611 141.095L232.177 135.91L233.058 129.669C233.163 128.942 233.233 128.327 233.442 127.607C233.673 126.832 233.694 125.944 233.847 125.148L234.742 120.333L235.79 115.007L236.265 112.967L237.293 108.655L237.789 106.635L238.816 102.764L240.165 98.0814L242.352 90.8064L243.002 88.8916L243.757 86.7601L244.924 83.5874L245.924 80.7431C246.273 79.7507 246.664 78.7933 247.049 77.8289L248.006 75.4388L249.229 72.1543C250.089 69.8411 250.655 69.1423 251.647 66.4937C252.248 64.9003 254.24 63.4397 255.721 62.4543C256.686 61.8184 259.174 61.8603 260.369 62.0141C263.674 62.4404 266.421 65.0121 267.168 68.2757C267.392 69.2541 267.259 70.4631 267.168 71.4624C267.091 72.2801 266.7 73.2235 266.351 73.9433L265.421 75.8721L264.303 78.4648C263.178 81.0715 262.514 83.5384 261.27 86.4806L260.62 88.018C259.656 90.2962 258.992 92.6164 258.209 94.9715L256.721 99.4581L255.847 102.603L254.848 106.139C254.47 107.474 254.1 108.795 253.779 110.143L253.038 113.267C252.877 113.931 252.716 114.623 252.528 115.28C252.241 116.279 252.073 117.258 251.836 118.271C251.472 119.829 251.102 121.304 250.892 122.89C250.725 124.12 250.536 125.336 250.242 126.545C249.872 128.09 249.69 129.571 249.425 131.144L249.04 133.387C248.733 135.19 248.446 136.902 248.251 138.719L247.908 141.871C247.824 142.647 247.706 143.324 247.685 144.135C247.664 144.89 247.447 145.701 247.377 146.462L247.084 149.663C247.007 150.495 246.965 151.319 246.832 152.165C246.483 154.408 246.399 156.568 246.224 158.79L245.924 162.459L245.819 164.737L245.658 167.428L245.581 170.069L245.42 173.081L245.239 176.303C245.183 177.267 245.197 178.162 245.204 179.161V181.006L245.05 185.024L245.099 187.519C245.12 188.637 245.211 189.602 245.022 190.727C244.966 191.083 245.078 191.677 245.064 192.055C244.994 193.907 245.015 195.626 245.281 197.464C248.307 197.45 249.641 197.184 252.828 197.149C253.499 197.149 254.31 196.926 255.015 196.954C256.853 197.031 258.524 196.702 260.313 196.492L263.332 196.136C264.031 196.052 264.855 195.989 265.561 196.003L268.594 196.059C270.614 196.101 272.368 197.471 273.744 198.757C275.121 200.043 275.743 201.748 275.764 203.614C275.785 205.696 275.659 206.968 274.443 208.61L273.437 209.973C272.347 211.448 269.642 212.426 267.776 212.37C266.155 212.321 264.736 212.377 263.15 212.601L261.361 212.852L258.705 213.069L254.345 213.418L250.829 213.649C249.683 213.726 248.635 213.74 247.475 213.726L245.903 213.705L245.826 215.277C245.791 216.004 245.889 216.752 245.958 217.493L246.217 220.148L246.434 222.923L246.643 224.907L247.077 228.996L247.405 232.147L247.72 234.447L248.3 239.485L249.152 245.048C249.928 250.08 250.766 255.042 252.255 259.898L252.856 261.862C253.143 262.799 253.282 263.679 253.604 264.63L254.058 265.943C254.568 267.439 255.078 268.809 255.582 270.297L256.385 272.673L257.217 274.931L258.691 278.963L259.355 280.787C259.991 282.541 260.634 284.26 261.396 285.951C261.843 286.944 262.339 287.838 262.654 288.88C262.947 289.844 263.304 290.752 263.723 291.654L264.478 293.296L265.855 296.441L266.749 298.377L268.307 301.64L269.391 303.912C270.593 306.42 271.823 308.845 273.332 311.166L275.862 315.065C276.952 316.749 278.245 318.294 279.699 319.685C280.314 320.272 281.453 320.397 282.054 321.04C283.402 322.48 284.514 324.01 284.779 326.002C284.975 327.491 284.863 329.559 284.192 330.824Z" fill="white"/>
<rect width="427" height="427" rx="213.5" fill="#C881A1"/>
<rect width="427" height="427" rx="44" fill="#212121"/>
<rect x="42" y="42" width="335" height="335" rx="167.5" fill="#E8B0CA"/>
<rect x="122" y="121" width="273" height="273" rx="136.5" fill="#212121"/>
<g filter="url(#filter0_d_119_85)">
<path d="M275.843 331.188C274.764 333.234 272.895 334.728 270.711 335.458C269.039 336.017 266.921 335.425 265.335 334.767L264.355 334.359C261.88 333.333 260.071 330.977 258.327 328.944C257.682 328.187 256.952 327.477 256.419 326.608C255.636 325.325 254.787 324.193 253.912 322.963C253.037 321.732 250.616 317.547 249.813 316.028L248.339 313.238C247.681 311.994 247.122 310.744 246.543 309.474L244.266 304.486C243.832 303.539 243.319 302.67 242.93 301.703C242.246 300.005 241.917 298.571 241.134 297.038C240.134 295.09 240.667 296.071 239.884 294.057L238.686 290.997L237.824 288.721L236.113 284.26L234.791 280.384L233.317 276.318L231.073 268.764C230.751 267.685 230.474 266.704 230.224 265.605L229.705 263.309L229.244 261.098L228.329 256.387L227.711 252.998C227.52 251.965 227.336 250.965 227.211 249.906L226.711 245.813L226.257 242.372L225.533 236.318L225.184 232.87L224.921 230.008L224.533 225.771C224.421 224.566 224.428 223.375 224.375 222.086L217.433 222.961L214.196 223.362C212.722 223.547 211.248 223.619 209.807 223.862C208.873 224.02 208.024 224.139 207.089 224.205L204.049 224.422L200.963 224.757L201.102 227.501L201.233 230.1C201.273 230.909 201.391 231.732 201.292 232.548C201.121 234.042 201.306 235.489 201.266 236.963L201.187 239.963C201.167 240.681 201.135 241.464 201.095 242.181L200.931 245.333L200.424 251.472L199.812 256.209C199.68 257.203 199.647 258.131 199.483 259.124L199.121 261.302L198.739 263.658L198.299 266.04L197.93 268.04L197.009 272.199L196.614 274.107C196.219 276.008 195.838 277.785 195.331 279.66L193.094 287.964L192.666 289.333C192.265 290.622 191.923 291.892 191.429 293.149L187.554 302.999L186.093 306.125L184.869 308.671L184.29 309.809C183.816 310.737 183.336 311.566 182.816 312.474L180.112 317.179C179.381 318.449 178.71 319.633 177.973 320.897L176.94 322.68C176.44 323.542 175.848 324.345 175.433 325.239C175.104 325.943 174.736 326.516 174.328 327.161L172.242 330.438C171.775 331.175 171.334 331.806 170.788 332.477L168.827 334.919C167.827 336.162 166.327 336.557 164.932 337.037L162.247 337.044C159.609 336.577 157.411 334.741 156.463 332.491C155.292 329.701 155.779 326.878 157.529 324.621C159.135 322.548 160.576 320.489 161.846 318.205L163.833 314.646L165.077 312.599C165.675 311.612 166.083 310.599 166.695 309.619L167.702 307.993C168.215 307.164 168.531 306.329 169.024 305.506L170.268 303.44C171.393 301.571 174.019 295.821 174.815 293.662L175.841 290.879L176.651 288.826C177.348 287.056 178.032 285.299 178.486 283.444L179.302 280.108C179.579 278.969 180.02 277.917 180.217 276.765C180.329 276.114 180.46 275.515 180.612 274.903L181.388 271.685C181.586 270.869 181.697 270.04 181.967 269.238C182.198 268.553 182.283 267.876 182.349 267.125C182.434 266.178 182.737 265.277 182.908 264.349L183.356 261.94C183.527 261.026 183.724 260.17 183.869 259.23L184.797 253.097C185.001 251.748 185.395 247.392 185.481 245.945L185.711 242.188L185.81 239.516C185.843 238.562 185.777 237.634 185.889 236.706C186.027 235.581 185.968 234.502 185.856 233.357C185.777 232.601 185.968 231.87 185.909 231.113L185.77 229.291C185.691 228.271 185.948 227.291 185.54 226.35L179.927 227.06L177.506 227.323L173.44 227.777L171.4 228.146L164.478 228.758C163.03 228.883 161.576 229.093 160.155 228.876C156.134 228.258 153.489 224.599 153.851 220.678C154.213 216.756 157.45 213.789 161.471 213.69C162.649 213.663 163.774 213.466 164.932 213.341L171.874 212.591L183.237 211.104C183.671 211.045 184.033 210.992 184.428 210.92C184.31 209.722 184.25 208.821 184.073 207.735L182.974 200.918L182.072 196.023L181.724 194.253L181.289 192.318L179.684 185.857C179.473 185.021 179.25 184.231 178.993 183.422C178.769 182.711 178.651 182.014 178.44 181.29L177.263 177.303C176.94 176.197 176.558 175.191 176.157 174.118L175.453 172.256L174.361 169.413L173.499 167.13C172.795 165.261 171.926 163.511 171.064 161.708L168.82 157.017C168.32 155.977 167.886 154.944 167.333 153.944L166.583 152.589L165.379 150.332L164.53 148.627C163.879 147.325 163.221 146.028 162.431 144.804C161.8 143.831 161.293 142.896 160.721 141.916L159.734 140.218L158.536 138.251L157.47 136.474C157.023 135.724 156.562 135.007 156.049 134.29L153.634 130.881L151.601 127.999L149.587 125.459C148.679 124.315 147.916 123.176 146.962 122.064C146.633 121.683 146.291 121.248 145.988 120.847L142.942 116.767C142.494 116.162 142.178 115.28 141.816 114.583C140.823 112.668 141.547 109.253 143.06 107.483C143.639 106.805 144.179 106.108 144.995 105.713C145.975 105.233 146.962 104.693 148.061 104.555C148.771 104.469 149.712 104.384 150.416 104.542C152.239 104.956 154.114 105.989 155.207 107.483L156.95 109.878C157.806 111.049 158.615 112.161 159.622 113.221C160.411 114.05 161.293 115.57 162.28 116.86L164.623 119.906L167.103 123.268C167.636 123.992 168.136 124.644 168.584 125.433C169.031 126.223 169.525 126.887 169.985 127.631L172.525 131.71L175.552 136.889L176.512 138.488L177.749 140.745C178.19 141.547 178.592 142.291 178.954 143.133C179.355 144.061 179.993 144.851 180.421 145.759L181.493 148.002C182.217 149.522 183.02 150.957 183.639 152.523C183.981 153.391 184.408 154.253 184.862 155.069C185.481 156.181 185.882 157.28 186.442 158.432L187.672 160.958L188.284 162.728L189.666 166.084C190.001 166.906 190.166 167.736 190.468 168.584L191.409 171.236L192.699 175.48C193.008 176.487 193.285 177.401 193.568 178.428L194.791 182.869C195.14 184.146 195.285 185.35 195.667 186.62L196.259 188.614L197.114 192.805L197.976 197.431L198.437 199.892L198.746 202.247C198.897 203.405 199.246 204.445 199.391 205.59L199.694 208.11C199.753 208.59 199.819 209.044 199.911 209.452L201.582 209.262L205.01 208.906L210.412 208.307L214.242 207.821L220.111 207.222L223.75 206.774C223.77 205.583 223.717 204.281 223.704 203.057L223.684 200.523C223.677 199.471 223.5 198.457 223.559 197.431L223.691 195.167L223.789 189.397L223.875 186.015L223.927 183.475L224.184 177.5C224.23 176.362 224.237 175.349 224.362 174.237C224.605 172.059 224.743 169.907 224.855 167.716L224.98 165.367C225.013 164.689 225.059 164.024 225.138 163.327L225.553 159.655L226.02 155.378L226.336 152.549L226.869 147.667L227.698 141.791C227.796 141.107 227.862 140.528 228.06 139.85C228.277 139.119 228.297 138.284 228.441 137.534L229.283 133L230.27 127.986L230.718 126.065L231.685 122.005L232.152 120.103L233.12 116.458L234.39 112.05L236.449 105.2L237.061 103.397L237.772 101.39L238.87 98.4028L239.811 95.7248C240.14 94.7904 240.509 93.889 240.871 92.9809L241.772 90.7306L242.924 87.638C243.733 85.4601 244.266 84.8021 245.2 82.3083C245.766 80.8081 247.642 79.4328 249.036 78.5051C249.944 77.9063 252.287 77.9458 253.412 78.0905C256.524 78.4919 259.11 80.9133 259.814 83.9862C260.025 84.9074 259.9 86.0457 259.814 86.9866C259.742 87.7565 259.374 88.6448 259.045 89.3225L258.169 91.1386L257.117 93.5797C256.057 96.034 255.432 98.3567 254.261 101.127L253.649 102.574C252.741 104.72 252.116 106.904 251.379 109.122L249.977 113.346L249.155 116.307L248.214 119.636C247.859 120.893 247.51 122.137 247.207 123.407L246.51 126.348C246.358 126.973 246.207 127.624 246.029 128.243C245.76 129.184 245.602 130.105 245.378 131.059C245.036 132.526 244.687 133.915 244.49 135.408C244.332 136.566 244.154 137.711 243.878 138.85C243.529 140.304 243.358 141.699 243.108 143.179L242.746 145.291C242.457 146.989 242.187 148.601 242.003 150.312L241.68 153.279C241.601 154.01 241.489 154.648 241.47 155.411C241.45 156.122 241.246 156.885 241.18 157.602L240.904 160.616C240.831 161.399 240.792 162.176 240.667 162.972C240.338 165.084 240.259 167.117 240.094 169.209L239.811 172.664L239.713 174.809L239.561 177.342L239.489 179.829L239.338 182.665L239.167 185.699C239.114 186.607 239.127 187.449 239.134 188.39V190.127L238.989 193.911L239.035 196.26C239.055 197.312 239.14 198.22 238.963 199.28C238.91 199.615 239.015 200.175 239.002 200.53C238.936 202.274 238.956 203.892 239.206 205.623C242.055 205.61 243.312 205.36 246.312 205.327C246.944 205.327 247.707 205.116 248.372 205.142C250.102 205.215 251.675 204.906 253.359 204.708L256.202 204.373C256.86 204.294 257.636 204.234 258.301 204.248L261.157 204.3C263.058 204.34 264.71 205.629 266.006 206.84C267.302 208.051 267.888 209.656 267.908 211.413C267.927 213.374 267.809 214.572 266.664 216.118L265.717 217.401C264.69 218.789 262.144 219.71 260.387 219.658C258.86 219.612 257.525 219.664 256.031 219.875L254.346 220.112L251.846 220.316L247.74 220.645L244.431 220.862C243.351 220.934 242.364 220.947 241.272 220.934L239.792 220.915L239.719 222.395C239.686 223.079 239.779 223.783 239.844 224.481L240.088 226.981L240.292 229.594L240.489 231.462L240.897 235.311L241.206 238.279L241.502 240.444L242.049 245.188L242.851 250.426C243.582 255.163 244.371 259.835 245.773 264.408L246.339 266.257C246.608 267.139 246.74 267.968 247.043 268.863L247.47 270.1C247.951 271.508 248.431 272.797 248.905 274.199L249.662 276.436L250.445 278.561L251.833 282.358L252.458 284.075C253.057 285.727 253.662 287.346 254.379 288.938C254.8 289.872 255.268 290.715 255.564 291.695C255.84 292.603 256.176 293.458 256.57 294.307L257.281 295.853L258.577 298.814L259.42 300.637L260.887 303.71L261.907 305.848C263.039 308.211 264.197 310.494 265.618 312.678L268 316.35C269.026 317.936 270.244 319.39 271.612 320.699C272.191 321.252 273.264 321.37 273.83 321.976C275.1 323.331 276.146 324.772 276.396 326.648C276.58 328.049 276.475 329.997 275.843 331.188Z" fill="white"/>
</g>
<rect x="261" y="241" width="49" height="49" rx="24.5" fill="#FFD8EA"/>
<defs>
<filter id="filter0_d_119_85" x="140.56" y="76.2" width="152.718" height="276.644" filterUnits="userSpaceOnUse" color-interpolation-filters="sRGB">
<feFlood flood-opacity="0" result="BackgroundImageFix"/>
<feColorMatrix in="SourceAlpha" type="matrix" values="0 0 0 0 0 0 0 0 0 0 0 0 0 0 0 0 0 0 127 0" result="hardAlpha"/>
<feOffset dx="8" dy="7"/>
<feGaussianBlur stdDeviation="4.4"/>
<feComposite in2="hardAlpha" operator="out"/>
<feColorMatrix type="matrix" values="0 0 0 0 0 0 0 0 0 0 0 0 0 0 0 0 0 0 0.31 0"/>
<feBlend mode="normal" in2="BackgroundImageFix" result="effect1_dropShadow_119_85"/>
<feBlend mode="normal" in="SourceGraphic" in2="effect1_dropShadow_119_85" result="shape"/>
</filter>
</defs>
</svg>
