<svg width="249" height="249" viewBox="0 0 249 249" fill="none" xmlns="http://www.w3.org/2000/svg">
<g filter="url(#filter0_d_12_10)">
<rect x="4" width="241" height="241" rx="25" fill="#CEDBDB"/>
</g>
<g filter="url(#filter1_d_12_10)">
<path d="M110.846 198.214C110.106 198.806 109.07 199.102 107.738 199.102C105.814 199.102 104.334 198.362 103.298 196.882L101.966 193.996C101.67 193.256 101.3 192.59 100.856 191.998C100.412 191.406 100.116 190.592 99.968 189.556V188.89C99.968 187.706 100.116 186.596 100.412 185.56C100.708 184.524 100.93 183.488 101.078 182.452C101.522 180.38 102.188 178.308 103.076 176.236C103.964 174.016 104.778 171.944 105.518 170.02C106.998 166.32 108.626 162.694 110.402 159.142C112.326 155.59 114.324 152.038 116.396 148.486C118.024 145.674 119.726 142.936 121.502 140.272C123.426 137.608 125.276 134.87 127.052 132.058C128.384 129.986 130.16 127.544 132.38 124.732C134.748 121.772 136.82 119.108 138.596 116.74C140.372 114.224 141.038 112.522 140.594 111.634C139.706 112.67 138.3 114.298 136.376 116.518C134.452 118.738 132.528 120.958 130.604 123.178C128.828 125.25 127.496 126.878 126.608 128.062C125.868 129.098 125.128 130.134 124.388 131.17C123.796 132.058 123.13 133.02 122.39 134.056C121.946 134.648 121.428 135.092 120.836 135.388C120.244 135.684 119.652 136.128 119.06 136.72L114.398 142.936L112.622 145.156L112.178 145.6C112.03 146.488 111.66 147.302 111.068 148.042C110.476 148.634 109.884 149.3 109.292 150.04C108.108 151.668 106.776 153.37 105.296 155.146C103.964 156.922 102.632 158.624 101.3 160.252C100.412 161.288 99.524 162.472 98.636 163.804C97.896 164.988 97.008 166.172 95.972 167.356L93.974 170.686L92.198 172.906C91.754 173.646 91.088 175.126 90.2 177.346C89.46 179.566 88.72 180.824 87.98 181.12H87.536C87.092 181.12 86.648 181.046 86.204 180.898C85.908 180.602 85.612 180.38 85.316 180.232C84.132 179.492 83.022 178.53 81.986 177.346C80.95 176.162 80.432 174.83 80.432 173.35C80.432 172.462 80.506 171.722 80.654 171.13C80.95 170.39 81.098 169.576 81.098 168.688C81.394 168.392 81.542 167.948 81.542 167.356L83.54 162.916C85.02 159.216 86.944 155.516 89.312 151.816C89.46 151.52 89.682 151.15 89.978 150.706C90.274 150.262 90.348 150.04 90.2 150.04L93.53 144.268C93.974 143.528 94.566 142.714 95.306 141.826C96.194 140.938 96.638 139.976 96.638 138.94L96.86 138.718C97.452 138.422 98.044 137.682 98.636 136.498C99.376 135.314 99.894 134.426 100.19 133.834C101.374 132.058 102.558 130.282 103.742 128.506C104.926 126.582 106.036 124.732 107.072 122.956C107.664 122.216 108.182 121.55 108.626 120.958C109.218 120.366 109.736 119.774 110.18 119.182C112.4 116.222 114.694 113.188 117.062 110.08C119.43 106.972 121.576 103.79 123.5 100.534V100.09H123.722V99.868C123.13 100.016 122.612 100.46 122.168 101.2C121.724 101.792 121.28 102.31 120.836 102.754C119.504 104.086 118.246 105.492 117.062 106.972C115.878 108.304 114.694 109.71 113.51 111.19L110.18 114.52L108.182 117.406C105.814 120.366 103.298 123.252 100.634 126.064C98.118 128.728 95.602 131.54 93.086 134.5L75.326 154.258C73.55 156.182 72.366 157.144 71.774 157.144C71.478 157.144 71.33 156.996 71.33 156.7C71.33 156.108 71.848 155.146 72.884 153.814L79.988 145.822C81.024 144.638 81.986 143.602 82.874 142.714C83.91 141.678 84.872 140.642 85.76 139.606C86.5 138.866 87.166 138.052 87.758 137.164C88.498 136.276 89.238 135.462 89.978 134.722L93.53 130.948L97.526 125.842C105.666 116.666 113.732 107.564 121.724 98.536C129.864 89.36 137.634 79.962 145.034 70.342C145.774 69.454 146.44 68.566 147.032 67.678C147.772 66.642 148.438 65.606 149.03 64.57L161.684 47.698C162.424 46.81 163.164 45.922 163.904 45.034C164.792 44.146 165.532 43.258 166.124 42.37C166.42 42.074 166.716 41.704 167.012 41.26C167.308 40.816 167.604 40.372 167.9 39.928L170.12 38.818C171.008 38.818 172.266 39.188 173.894 39.928C175.67 40.52 177.224 41.408 178.556 42.592C179.888 43.628 180.332 44.812 179.888 46.144C179.888 46.292 179.148 47.106 177.668 48.586C176.336 49.918 174.93 51.25 173.45 52.582C171.97 53.766 171.082 54.506 170.786 54.802C170.49 54.802 170.342 54.95 170.342 55.246C169.602 55.986 168.862 56.874 168.122 57.91C167.53 58.798 166.864 59.612 166.124 60.352C165.68 60.944 164.57 62.054 162.794 63.682C161.166 65.162 159.538 66.642 157.91 68.122C156.43 69.602 155.69 70.638 155.69 71.23C155.394 71.23 155.246 71.23 155.246 71.23L151.916 75.67L144.368 83.662C143.924 84.254 143.48 84.772 143.036 85.216C142.592 85.512 142.148 85.882 141.704 86.326C140.964 87.362 140.224 88.472 139.484 89.656C138.744 90.84 137.93 92.024 137.042 93.208L132.602 97.426L131.27 100.09L129.272 101.866C128.976 102.31 128.31 103.272 127.274 104.752C126.386 106.232 125.498 107.712 124.61 109.192C123.722 110.524 123.278 111.412 123.278 111.856C122.686 112.152 122.168 112.596 121.724 113.188C121.428 113.78 121.132 114.372 120.836 114.964L120.614 115.186H119.726C119.578 115.778 119.282 116.296 118.838 116.74C118.394 117.184 118.024 117.702 117.728 118.294L116.84 120.292L114.842 122.512L113.066 124.954C112.918 125.546 112.696 126.064 112.4 126.508C112.252 126.952 112.03 127.47 111.734 128.062L107.516 133.612C107.072 134.352 106.48 134.944 105.74 135.388C105 135.832 104.63 136.646 104.63 137.83C104.482 137.978 104.26 138.644 103.964 139.828C103.816 141.012 103.594 141.604 103.298 141.604C103.298 141.752 103.298 141.9 103.298 142.048C103.446 142.196 103.52 142.344 103.52 142.492C103.52 143.528 103.002 144.342 101.966 144.934C100.93 145.526 100.19 146.34 99.746 147.376C99.302 147.968 98.932 148.634 98.636 149.374C98.34 150.114 98.044 150.854 97.748 151.594L97.082 153.814L94.64 156.922L93.086 161.584C92.198 163.064 91.088 164.692 89.756 166.468C88.572 168.244 87.98 170.094 87.98 172.018H88.202V171.796L90.422 169.354L105.518 149.374C105.814 148.93 106.554 147.968 107.738 146.488C108.922 145.008 109.514 144.12 109.514 143.824H110.18C110.328 143.38 110.994 142.418 112.178 140.938C113.51 139.31 114.916 137.608 116.396 135.832C118.024 133.908 119.43 132.28 120.614 130.948C121.946 129.616 122.686 128.95 122.834 128.95C123.426 127.766 124.166 126.73 125.054 125.842C125.942 124.954 126.904 124.066 127.94 123.178L139.706 110.524C140.298 109.932 140.668 109.784 140.816 110.08C141.112 108.896 141.704 107.712 142.592 106.528C143.48 105.344 144.146 104.53 144.59 104.086C144.738 103.938 145.256 103.938 146.144 104.086C147.18 104.234 147.698 104.234 147.698 104.086L148.142 103.864C148.882 104.456 150.14 105.048 151.916 105.64C153.692 106.084 155.32 106.75 156.8 107.638C158.28 108.378 159.02 109.488 159.02 110.968C159.02 111.56 158.798 112.226 158.354 112.966C157.762 113.854 156.948 114.52 155.912 114.964C155.024 115.408 154.21 116 153.47 116.74C152.73 117.184 152.138 117.776 151.694 118.516C150.954 119.256 149.622 120.662 147.698 122.734C145.774 124.806 144.442 125.916 143.702 126.064C142.666 126.952 141.038 128.876 138.818 131.836C136.746 134.648 134.674 137.608 132.602 140.716C130.53 143.676 128.976 145.97 127.94 147.598C126.46 149.818 125.054 151.816 123.722 153.592C122.39 155.22 121.132 156.996 119.948 158.92C119.8 159.512 119.504 160.03 119.06 160.474C118.616 160.918 118.246 161.362 117.95 161.806L117.284 163.804C117.136 164.248 116.618 165.136 115.73 166.468C114.99 167.8 114.472 168.54 114.176 168.688C114.176 169.724 113.658 170.982 112.622 172.462C111.586 173.794 111.142 174.756 111.29 175.348L110.846 174.904L110.624 175.126C110.476 175.57 110.254 176.606 109.958 178.234C109.81 179.714 109.366 180.602 108.626 180.898V181.342C108.626 181.934 108.478 182.526 108.182 183.118C108.034 183.562 107.886 184.08 107.738 184.672C107.59 185.264 107.368 186.67 107.072 188.89C106.776 190.962 106.628 192.886 106.628 194.662C106.628 196.734 106.998 197.77 107.738 197.77C108.922 197.77 110.328 196.956 111.956 195.328C113.732 193.848 114.99 192.738 115.73 191.998L117.506 190.444C117.506 190.74 117.432 190.888 117.284 190.888C117.136 191.184 116.544 191.924 115.508 193.108C114.472 194.292 114.028 195.032 114.176 195.328C113.584 195.624 113.288 195.772 113.288 195.772L110.846 198.214Z" fill="white"/>
</g>
<g filter="url(#filter2_d_12_10)">
<path d="M112.846 198.214C112.106 198.806 111.07 199.102 109.738 199.102C107.814 199.102 106.334 198.362 105.298 196.882L103.966 193.996C103.67 193.256 103.3 192.59 102.856 191.998C102.412 191.406 102.116 190.592 101.968 189.556V188.89C101.968 187.706 102.116 186.596 102.412 185.56C102.708 184.524 102.93 183.488 103.078 182.452C103.522 180.38 104.188 178.308 105.076 176.236C105.964 174.016 106.778 171.944 107.518 170.02C108.998 166.32 110.626 162.694 112.402 159.142C114.326 155.59 116.324 152.038 118.396 148.486C120.024 145.674 121.726 142.936 123.502 140.272C125.426 137.608 127.276 134.87 129.052 132.058C130.384 129.986 132.16 127.544 134.38 124.732C136.748 121.772 138.82 119.108 140.596 116.74C142.372 114.224 143.038 112.522 142.594 111.634C141.706 112.67 140.3 114.298 138.376 116.518C136.452 118.738 134.528 120.958 132.604 123.178C130.828 125.25 129.496 126.878 128.608 128.062C127.868 129.098 127.128 130.134 126.388 131.17C125.796 132.058 125.13 133.02 124.39 134.056C123.946 134.648 123.428 135.092 122.836 135.388C122.244 135.684 121.652 136.128 121.06 136.72L116.398 142.936L114.622 145.156L114.178 145.6C114.03 146.488 113.66 147.302 113.068 148.042C112.476 148.634 111.884 149.3 111.292 150.04C110.108 151.668 108.776 153.37 107.296 155.146C105.964 156.922 104.632 158.624 103.3 160.252C102.412 161.288 101.524 162.472 100.636 163.804C99.896 164.988 99.008 166.172 97.972 167.356L95.974 170.686L94.198 172.906C93.754 173.646 93.088 175.126 92.2 177.346C91.46 179.566 90.72 180.824 89.98 181.12H89.536C89.092 181.12 88.648 181.046 88.204 180.898C87.908 180.602 87.612 180.38 87.316 180.232C86.132 179.492 85.022 178.53 83.986 177.346C82.95 176.162 82.432 174.83 82.432 173.35C82.432 172.462 82.506 171.722 82.654 171.13C82.95 170.39 83.098 169.576 83.098 168.688C83.394 168.392 83.542 167.948 83.542 167.356L85.54 162.916C87.02 159.216 88.944 155.516 91.312 151.816C91.46 151.52 91.682 151.15 91.978 150.706C92.274 150.262 92.348 150.04 92.2 150.04L95.53 144.268C95.974 143.528 96.566 142.714 97.306 141.826C98.194 140.938 98.638 139.976 98.638 138.94L98.86 138.718C99.452 138.422 100.044 137.682 100.636 136.498C101.376 135.314 101.894 134.426 102.19 133.834C103.374 132.058 104.558 130.282 105.742 128.506C106.926 126.582 108.036 124.732 109.072 122.956C109.664 122.216 110.182 121.55 110.626 120.958C111.218 120.366 111.736 119.774 112.18 119.182C114.4 116.222 116.694 113.188 119.062 110.08C121.43 106.972 123.576 103.79 125.5 100.534V100.09H125.722V99.868C125.13 100.016 124.612 100.46 124.168 101.2C123.724 101.792 123.28 102.31 122.836 102.754C121.504 104.086 120.246 105.492 119.062 106.972C117.878 108.304 116.694 109.71 115.51 111.19L112.18 114.52L110.182 117.406C107.814 120.366 105.298 123.252 102.634 126.064C100.118 128.728 97.602 131.54 95.086 134.5L77.326 154.258C75.55 156.182 74.366 157.144 73.774 157.144C73.478 157.144 73.33 156.996 73.33 156.7C73.33 156.108 73.848 155.146 74.884 153.814L81.988 145.822C83.024 144.638 83.986 143.602 84.874 142.714C85.91 141.678 86.872 140.642 87.76 139.606C88.5 138.866 89.166 138.052 89.758 137.164C90.498 136.276 91.238 135.462 91.978 134.722L95.53 130.948L99.526 125.842C107.666 116.666 115.732 107.564 123.724 98.536C131.864 89.36 139.634 79.962 147.034 70.342C147.774 69.454 148.44 68.566 149.032 67.678C149.772 66.642 150.438 65.606 151.03 64.57L163.684 47.698C164.424 46.81 165.164 45.922 165.904 45.034C166.792 44.146 167.532 43.258 168.124 42.37C168.42 42.074 168.716 41.704 169.012 41.26C169.308 40.816 169.604 40.372 169.9 39.928L172.12 38.818C173.008 38.818 174.266 39.188 175.894 39.928C177.67 40.52 179.224 41.408 180.556 42.592C181.888 43.628 182.332 44.812 181.888 46.144C181.888 46.292 181.148 47.106 179.668 48.586C178.336 49.918 176.93 51.25 175.45 52.582C173.97 53.766 173.082 54.506 172.786 54.802C172.49 54.802 172.342 54.95 172.342 55.246C171.602 55.986 170.862 56.874 170.122 57.91C169.53 58.798 168.864 59.612 168.124 60.352C167.68 60.944 166.57 62.054 164.794 63.682C163.166 65.162 161.538 66.642 159.91 68.122C158.43 69.602 157.69 70.638 157.69 71.23C157.394 71.23 157.246 71.23 157.246 71.23L153.916 75.67L146.368 83.662C145.924 84.254 145.48 84.772 145.036 85.216C144.592 85.512 144.148 85.882 143.704 86.326C142.964 87.362 142.224 88.472 141.484 89.656C140.744 90.84 139.93 92.024 139.042 93.208L134.602 97.426L133.27 100.09L131.272 101.866C130.976 102.31 130.31 103.272 129.274 104.752C128.386 106.232 127.498 107.712 126.61 109.192C125.722 110.524 125.278 111.412 125.278 111.856C124.686 112.152 124.168 112.596 123.724 113.188C123.428 113.78 123.132 114.372 122.836 114.964L122.614 115.186H121.726C121.578 115.778 121.282 116.296 120.838 116.74C120.394 117.184 120.024 117.702 119.728 118.294L118.84 120.292L116.842 122.512L115.066 124.954C114.918 125.546 114.696 126.064 114.4 126.508C114.252 126.952 114.03 127.47 113.734 128.062L109.516 133.612C109.072 134.352 108.48 134.944 107.74 135.388C107 135.832 106.63 136.646 106.63 137.83C106.482 137.978 106.26 138.644 105.964 139.828C105.816 141.012 105.594 141.604 105.298 141.604C105.298 141.752 105.298 141.9 105.298 142.048C105.446 142.196 105.52 142.344 105.52 142.492C105.52 143.528 105.002 144.342 103.966 144.934C102.93 145.526 102.19 146.34 101.746 147.376C101.302 147.968 100.932 148.634 100.636 149.374C100.34 150.114 100.044 150.854 99.748 151.594L99.082 153.814L96.64 156.922L95.086 161.584C94.198 163.064 93.088 164.692 91.756 166.468C90.572 168.244 89.98 170.094 89.98 172.018H90.202V171.796L92.422 169.354L107.518 149.374C107.814 148.93 108.554 147.968 109.738 146.488C110.922 145.008 111.514 144.12 111.514 143.824H112.18C112.328 143.38 112.994 142.418 114.178 140.938C115.51 139.31 116.916 137.608 118.396 135.832C120.024 133.908 121.43 132.28 122.614 130.948C123.946 129.616 124.686 128.95 124.834 128.95C125.426 127.766 126.166 126.73 127.054 125.842C127.942 124.954 128.904 124.066 129.94 123.178L141.706 110.524C142.298 109.932 142.668 109.784 142.816 110.08C143.112 108.896 143.704 107.712 144.592 106.528C145.48 105.344 146.146 104.53 146.59 104.086C146.738 103.938 147.256 103.938 148.144 104.086C149.18 104.234 149.698 104.234 149.698 104.086L150.142 103.864C150.882 104.456 152.14 105.048 153.916 105.64C155.692 106.084 157.32 106.75 158.8 107.638C160.28 108.378 161.02 109.488 161.02 110.968C161.02 111.56 160.798 112.226 160.354 112.966C159.762 113.854 158.948 114.52 157.912 114.964C157.024 115.408 156.21 116 155.47 116.74C154.73 117.184 154.138 117.776 153.694 118.516C152.954 119.256 151.622 120.662 149.698 122.734C147.774 124.806 146.442 125.916 145.702 126.064C144.666 126.952 143.038 128.876 140.818 131.836C138.746 134.648 136.674 137.608 134.602 140.716C132.53 143.676 130.976 145.97 129.94 147.598C128.46 149.818 127.054 151.816 125.722 153.592C124.39 155.22 123.132 156.996 121.948 158.92C121.8 159.512 121.504 160.03 121.06 160.474C120.616 160.918 120.246 161.362 119.95 161.806L119.284 163.804C119.136 164.248 118.618 165.136 117.73 166.468C116.99 167.8 116.472 168.54 116.176 168.688C116.176 169.724 115.658 170.982 114.622 172.462C113.586 173.794 113.142 174.756 113.29 175.348L112.846 174.904L112.624 175.126C112.476 175.57 112.254 176.606 111.958 178.234C111.81 179.714 111.366 180.602 110.626 180.898V181.342C110.626 181.934 110.478 182.526 110.182 183.118C110.034 183.562 109.886 184.08 109.738 184.672C109.59 185.264 109.368 186.67 109.072 188.89C108.776 190.962 108.628 192.886 108.628 194.662C108.628 196.734 108.998 197.77 109.738 197.77C110.922 197.77 112.328 196.956 113.956 195.328C115.732 193.848 116.99 192.738 117.73 191.998L119.506 190.444C119.506 190.74 119.432 190.888 119.284 190.888C119.136 191.184 118.544 191.924 117.508 193.108C116.472 194.292 116.028 195.032 116.176 195.328C115.584 195.624 115.288 195.772 115.288 195.772L112.846 198.214Z" fill="#758D8D"/>
</g>
<defs>
<filter id="filter0_d_12_10" x="0" y="0" width="249" height="249" filterUnits="userSpaceOnUse" color-interpolation-filters="sRGB">
<feFlood flood-opacity="0" result="BackgroundImageFix"/>
<feColorMatrix in="SourceAlpha" type="matrix" values="0 0 0 0 0 0 0 0 0 0 0 0 0 0 0 0 0 0 127 0" result="hardAlpha"/>
<feOffset dy="4"/>
<feGaussianBlur stdDeviation="2"/>
<feComposite in2="hardAlpha" operator="out"/>
<feColorMatrix type="matrix" values="0 0 0 0 0 0 0 0 0 0 0 0 0 0 0 0 0 0 0.25 0"/>
<feBlend mode="normal" in2="BackgroundImageFix" result="effect1_dropShadow_12_10"/>
<feBlend mode="normal" in="SourceGraphic" in2="effect1_dropShadow_12_10" result="shape"/>
</filter>
<filter id="filter1_d_12_10" x="67.33" y="38.818" width="117.224" height="168.284" filterUnits="userSpaceOnUse" color-interpolation-filters="sRGB">
<feFlood flood-opacity="0" result="BackgroundImageFix"/>
<feColorMatrix in="SourceAlpha" type="matrix" values="0 0 0 0 0 0 0 0 0 0 0 0 0 0 0 0 0 0 127 0" result="hardAlpha"/>
<feOffset dy="4"/>
<feGaussianBlur stdDeviation="2"/>
<feComposite in2="hardAlpha" operator="out"/>
<feColorMatrix type="matrix" values="0 0 0 0 0 0 0 0 0 0 0 0 0 0 0 0 0 0 0.25 0"/>
<feBlend mode="normal" in2="BackgroundImageFix" result="effect1_dropShadow_12_10"/>
<feBlend mode="normal" in="SourceGraphic" in2="effect1_dropShadow_12_10" result="shape"/>
</filter>
<filter id="filter2_d_12_10" x="69.33" y="38.818" width="117.224" height="168.284" filterUnits="userSpaceOnUse" color-interpolation-filters="sRGB">
<feFlood flood-opacity="0" result="BackgroundImageFix"/>
<feColorMatrix in="SourceAlpha" type="matrix" values="0 0 0 0 0 0 0 0 0 0 0 0 0 0 0 0 0 0 127 0" result="hardAlpha"/>
<feOffset dy="4"/>
<feGaussianBlur stdDeviation="2"/>
<feComposite in2="hardAlpha" operator="out"/>
<feColorMatrix type="matrix" values="0 0 0 0 0 0 0 0 0 0 0 0 0 0 0 0 0 0 0.25 0"/>
<feBlend mode="normal" in2="BackgroundImageFix" result="effect1_dropShadow_12_10"/>
<feBlend mode="normal" in="SourceGraphic" in2="effect1_dropShadow_12_10" result="shape"/>
</filter>
</defs>
</svg>
