<svg width="427" height="427" viewBox="0 0 427 427" fill="none" xmlns="http://www.w3.org/2000/svg">
<rect width="427" height="427" rx="44" fill="white"/>
<rect x="1.25" y="1.25" width="424.5" height="424.5" rx="43.74" fill="none" stroke="#212121" stroke-width="2.5" stroke-opacity="0.65"/>
<path d="M275.843 331.188C274.764 333.234 272.895 334.728 270.711 335.458C269.04 336.017 266.921 335.425 265.335 334.767L264.355 334.359C261.881 333.333 260.071 330.977 258.327 328.944C257.683 328.187 256.952 327.477 256.419 326.608C255.636 325.325 254.787 324.193 253.912 322.963C253.037 321.732 250.616 317.547 249.813 316.028L248.339 313.238C247.681 311.994 247.122 310.744 246.543 309.474L244.266 304.486C243.832 303.539 243.319 302.67 242.93 301.703C242.246 300.005 241.917 298.571 241.134 297.038C240.134 295.09 240.667 296.071 239.884 294.057L238.686 290.997L237.824 288.721L236.114 284.26L234.791 280.384L233.317 276.318L231.073 268.764C230.751 267.685 230.475 266.704 230.225 265.605L229.705 263.309L229.244 261.098L228.33 256.387L227.711 252.998C227.52 251.965 227.336 250.965 227.211 249.906L226.711 245.813L226.257 242.372L225.533 236.318L225.184 232.87L224.921 230.008L224.533 225.771C224.421 224.566 224.428 223.375 224.375 222.086L217.433 222.961L214.196 223.362C212.722 223.547 211.248 223.619 209.807 223.862C208.873 224.02 208.024 224.139 207.09 224.205L204.05 224.422L200.964 224.757L201.102 227.501L201.233 230.1C201.273 230.909 201.391 231.732 201.293 232.548C201.122 234.042 201.306 235.489 201.266 236.963L201.187 239.963C201.168 240.681 201.135 241.464 201.095 242.181L200.931 245.333L200.424 251.472L199.812 256.209C199.681 257.203 199.648 258.131 199.483 259.124L199.121 261.302L198.74 263.658L198.299 266.04L197.93 268.04L197.009 272.199L196.614 274.107C196.219 276.008 195.838 277.785 195.331 279.66L193.094 287.964L192.666 289.333C192.265 290.622 191.923 291.892 191.429 293.149L187.554 302.999L186.093 306.125L184.869 308.671L184.29 309.809C183.816 310.737 183.336 311.566 182.816 312.474L180.112 317.179C179.381 318.449 178.71 319.633 177.973 320.897L176.94 322.68C176.44 323.542 175.848 324.345 175.433 325.239C175.104 325.943 174.736 326.516 174.328 327.161L172.242 330.438C171.775 331.175 171.334 331.806 170.788 332.477L168.827 334.919C167.827 336.162 166.327 336.557 164.932 337.037L162.247 337.044C159.609 336.577 157.411 334.741 156.464 332.491C155.292 329.701 155.779 326.878 157.529 324.621C159.135 322.548 160.576 320.489 161.846 318.205L163.833 314.646L165.077 312.599C165.675 311.612 166.083 310.599 166.695 309.619L167.702 307.993C168.215 307.164 168.531 306.329 169.025 305.506L170.268 303.44C171.393 301.571 174.019 295.821 174.815 293.662L175.841 290.879L176.651 288.826C177.348 287.056 178.033 285.299 178.487 283.444L179.302 280.108C179.579 278.969 180.02 277.917 180.217 276.765C180.329 276.114 180.461 275.515 180.612 274.903L181.388 271.685C181.586 270.869 181.698 270.04 181.967 269.238C182.198 268.553 182.283 267.876 182.349 267.125C182.435 266.178 182.737 265.277 182.908 264.349L183.356 261.94C183.527 261.026 183.724 260.17 183.869 259.23L184.797 253.097C185.001 251.748 185.395 247.392 185.481 245.945L185.711 242.188L185.81 239.516C185.843 238.562 185.777 237.634 185.889 236.706C186.027 235.581 185.968 234.502 185.856 233.357C185.777 232.601 185.968 231.87 185.909 231.113L185.771 229.291C185.692 228.271 185.948 227.291 185.54 226.35L179.928 227.06L177.506 227.323L173.44 227.777L171.4 228.146L164.478 228.758C163.03 228.883 161.576 229.093 160.155 228.876C156.135 228.258 153.489 224.599 153.851 220.678C154.213 216.756 157.45 213.789 161.471 213.69C162.649 213.663 163.774 213.466 164.932 213.341L171.874 212.591L183.237 211.104C183.672 211.045 184.033 210.992 184.428 210.92C184.31 209.722 184.251 208.821 184.073 207.735L182.974 200.918L182.073 196.023L181.724 194.253L181.29 192.318L179.684 185.857C179.474 185.021 179.25 184.231 178.993 183.422C178.769 182.711 178.651 182.014 178.44 181.29L177.263 177.303C176.94 176.197 176.559 175.191 176.157 174.118L175.453 172.256L174.361 169.413L173.499 167.13C172.795 165.261 171.926 163.511 171.064 161.708L168.821 157.017C168.321 155.977 167.886 154.944 167.334 153.944L166.583 152.589L165.379 150.332L164.531 148.627C163.879 147.325 163.221 146.028 162.432 144.804C161.8 143.831 161.293 142.896 160.721 141.916L159.734 140.218L158.536 138.251L157.47 136.474C157.023 135.724 156.562 135.007 156.049 134.29L153.634 130.881L151.601 127.999L149.587 125.459C148.679 124.315 147.916 123.176 146.962 122.064C146.633 121.683 146.291 121.248 145.988 120.847L142.942 116.767C142.494 116.162 142.178 115.28 141.817 114.583C140.823 112.668 141.547 109.253 143.06 107.483C143.639 106.805 144.179 106.108 144.995 105.713C145.975 105.233 146.962 104.693 148.061 104.555C148.772 104.469 149.712 104.384 150.417 104.542C152.239 104.956 154.114 105.989 155.207 107.483L156.95 109.878C157.806 111.049 158.615 112.161 159.622 113.221C160.411 114.05 161.293 115.57 162.28 116.86L164.623 119.906L167.103 123.268C167.636 123.992 168.136 124.644 168.584 125.433C169.031 126.223 169.525 126.887 169.985 127.631L172.525 131.71L175.552 136.889L176.513 138.488L177.75 140.745C178.19 141.547 178.592 142.291 178.954 143.133C179.355 144.061 179.993 144.851 180.421 145.759L181.494 148.002C182.217 149.522 183.02 150.957 183.639 152.523C183.981 153.391 184.408 154.253 184.862 155.069C185.481 156.181 185.882 157.28 186.442 158.432L187.672 160.958L188.284 162.728L189.666 166.084C190.001 166.906 190.166 167.736 190.469 168.584L191.41 171.236L192.699 175.48C193.008 176.487 193.285 177.401 193.568 178.428L194.792 182.869C195.14 184.146 195.285 185.35 195.667 186.62L196.259 188.614L197.114 192.805L197.976 197.431L198.437 199.892L198.746 202.247C198.897 203.405 199.246 204.445 199.391 205.59L199.694 208.11C199.753 208.59 199.819 209.044 199.911 209.452L201.582 209.262L205.01 208.906L210.412 208.307L214.242 207.821L220.111 207.222L223.75 206.774C223.77 205.583 223.717 204.281 223.704 203.057L223.684 200.523C223.678 199.471 223.5 198.457 223.559 197.431L223.691 195.167L223.789 189.397L223.875 186.015L223.928 183.475L224.184 177.5C224.23 176.362 224.237 175.349 224.362 174.237C224.605 172.059 224.743 169.907 224.855 167.716L224.98 165.367C225.013 164.689 225.059 164.024 225.138 163.327L225.553 159.655L226.02 155.378L226.336 152.549L226.869 147.667L227.698 141.791C227.797 141.107 227.862 140.528 228.06 139.85C228.277 139.119 228.297 138.284 228.441 137.534L229.284 133L230.271 127.986L230.718 126.065L231.685 122.005L232.152 120.103L233.12 116.458L234.39 112.05L236.449 105.2L237.061 103.397L237.772 101.39L238.871 98.4028L239.812 95.7248C240.141 94.7904 240.509 93.889 240.871 92.9809L241.772 90.7306L242.924 87.638C243.733 85.4601 244.266 84.8021 245.2 82.3083C245.766 80.8081 247.642 79.4328 249.037 78.5051C249.945 77.9063 252.287 77.9458 253.412 78.0905C256.525 78.4919 259.11 80.9133 259.815 83.9862C260.025 84.9074 259.9 86.0457 259.815 86.9866C259.742 87.7565 259.374 88.6448 259.045 89.3225L258.17 91.1386L257.117 93.5797C256.057 96.034 255.432 98.3567 254.261 101.127L253.649 102.574C252.741 104.72 252.116 106.904 251.379 109.122L249.978 113.346L249.155 116.307L248.214 119.636C247.859 120.893 247.51 122.137 247.207 123.407L246.51 126.348C246.359 126.973 246.207 127.624 246.03 128.243C245.76 129.184 245.602 130.105 245.378 131.059C245.036 132.526 244.687 133.915 244.49 135.408C244.332 136.566 244.154 137.711 243.878 138.85C243.529 140.304 243.358 141.699 243.108 143.179L242.746 145.291C242.457 146.989 242.187 148.601 242.003 150.312L241.68 153.279C241.601 154.01 241.489 154.648 241.47 155.411C241.45 156.122 241.246 156.885 241.18 157.602L240.904 160.616C240.831 161.399 240.792 162.176 240.667 162.972C240.338 165.084 240.259 167.117 240.094 169.209L239.812 172.664L239.713 174.809L239.561 177.342L239.489 179.829L239.338 182.665L239.167 185.699C239.114 186.607 239.127 187.449 239.134 188.39V190.127L238.989 193.911L239.035 196.26C239.055 197.312 239.14 198.22 238.963 199.28C238.91 199.615 239.015 200.175 239.002 200.53C238.936 202.274 238.956 203.892 239.206 205.623C242.055 205.61 243.312 205.36 246.312 205.327C246.944 205.327 247.707 205.116 248.372 205.142C250.103 205.215 251.675 204.906 253.36 204.708L256.202 204.373C256.86 204.294 257.637 204.234 258.301 204.248L261.157 204.3C263.058 204.34 264.71 205.629 266.006 206.84C267.302 208.051 267.888 209.656 267.908 211.413C267.928 213.374 267.809 214.572 266.664 216.118L265.717 217.401C264.69 218.789 262.144 219.71 260.387 219.658C258.86 219.612 257.525 219.664 256.031 219.875L254.347 220.112L251.846 220.316L247.74 220.645L244.431 220.862C243.352 220.934 242.365 220.947 241.272 220.934L239.792 220.915L239.719 222.395C239.687 223.079 239.779 223.783 239.844 224.481L240.088 226.981L240.292 229.594L240.489 231.462L240.897 235.311L241.206 238.279L241.503 240.444L242.049 245.188L242.851 250.426C243.582 255.163 244.371 259.835 245.773 264.408L246.339 266.257C246.609 267.139 246.74 267.968 247.043 268.863L247.471 270.1C247.951 271.508 248.431 272.797 248.905 274.199L249.662 276.436L250.445 278.561L251.833 282.358L252.458 284.075C253.057 285.727 253.662 287.346 254.379 288.938C254.801 289.872 255.268 290.715 255.564 291.695C255.84 292.603 256.176 293.458 256.571 294.307L257.281 295.853L258.577 298.814L259.42 300.637L260.887 303.71L261.907 305.848C263.039 308.211 264.197 310.494 265.618 312.678L268 316.35C269.026 317.936 270.244 319.39 271.612 320.699C272.191 321.252 273.264 321.37 273.83 321.976C275.1 323.331 276.146 324.772 276.396 326.648C276.58 328.049 276.475 329.997 275.843 331.188Z" fill="#212121"/>
<rect x="261" y="241" width="49" height="49" rx="24.5" fill="#FFD8EA"/>
</svg>
